<svg width="512" height="512" viewBox="0 0 512 512" fill="none" xmlns="http://www.w3.org/2000/svg">
<path d="M268.628 345.326L201.546 278.243C207.549 271.856 210.423 263.591 210.177 255.38L304.376 255.38C304.813 287.862 292.906 320.39 268.628 345.326Z" fill="#EF269F"/>
<path d="M460.065 255.276L366.281 255.277C366.505 263.209 363.816 271.187 358.208 277.47L424.305 343.568C448.318 319.128 460.228 287.221 460.065 255.276Z" fill="#F6B100"/>
<path d="M358.133 277.568L424.21 343.645L423.921 343.935C399.544 368.312 367.557 380.485 335.482 380.486L335.482 287.713C343.433 287.531 351.308 284.421 357.353 278.376C357.544 278.184 357.733 277.991 357.919 277.796L358.133 277.568Z" fill="#F6DD00"/>
<path d="M357.012 233.989L423.562 167.438C447.71 191.851 459.969 223.573 460.308 255.313L366.502 255.312C366.113 247.573 362.95 239.927 357.017 233.995L357.012 233.989Z" fill="#FC6F1F"/>
<path d="M335.823 130.193L335.823 224.991C343.468 225.286 351.048 228.288 357.001 233.989L423.559 167.432C399.243 143.116 367.567 130.694 335.823 130.193Z" fill="#FC541F"/>
<path d="M314.287 233.052L247.174 165.939C271.777 141.765 303.95 129.857 336.108 130.184L336.108 224.971C328.299 224.841 320.472 227.532 314.287 233.052Z" fill="#EF2626"/>
<path d="M210.327 255.312L304.126 255.312C304.395 247.488 307.502 239.764 313.452 233.814C313.718 233.548 313.987 233.288 314.26 233.034L247.167 165.94L246.876 166.23C222.337 190.769 210.164 223.022 210.327 255.312Z" fill="#EF2656"/>
<path fill-rule="evenodd" clip-rule="evenodd" d="M174.011 130.557L174.01 225.184C181.642 225.479 189.207 228.475 195.15 234.166L205.618 223.699C211.595 201.225 223.373 180.011 240.963 162.422L241.28 162.105L241.29 162.115C243.495 159.974 245.757 157.927 248.073 155.974C226.139 139.446 200.098 130.969 174.011 130.557ZM205.614 223.712C203.854 230.332 202.598 237.06 201.844 243.838C200.272 240.335 198.046 237.051 195.167 234.171L195.161 234.165L205.614 223.712Z" fill="#6B0C74"/>
<path fill-rule="evenodd" clip-rule="evenodd" d="M336.619 380.457L336.619 287.959C329.159 287.67 321.764 284.742 315.955 279.178L308.347 286.786C301.657 313.019 287.812 337.674 266.953 357.612C287.807 372.452 312.192 380.072 336.619 380.457ZM308.351 286.772C309.503 282.252 310.443 277.684 311.17 273.086C312.477 275.254 314.066 277.301 315.938 279.173L315.944 279.179L308.351 286.772Z" fill="#F6EC00"/>
<path d="M157.939 234.383L89.8443 166.289C89.6053 166.524 89.367 166.76 89.1295 166.998C64.5801 191.547 52.2683 223.73 52.1643 256.031L148.406 256.032C148.688 248.227 151.794 240.526 157.73 234.59C157.799 234.521 157.869 234.451 157.939 234.383Z" fill="#A91BB6"/>
<path d="M179.665 225.86C171.792 225.871 163.942 228.751 157.819 234.506L89.7198 166.407C114.656 142.129 147.184 130.223 179.665 130.659L179.665 225.86Z" fill="#8A0F95"/>
<path d="M148.505 255.629C148.388 263.846 151.397 272.122 157.524 278.52L89.9583 346.086C64.9263 321.054 52.3569 288.309 52.281 255.629L148.505 255.629Z" fill="#BF24CC"/>
<path d="M89.7156 345.84C114.682 370.539 147.207 382.941 179.668 383.016L179.668 287.807C171.567 287.668 163.486 284.492 157.281 278.287L157.275 278.281L89.7156 345.84Z" fill="#D228B7"/>
<path d="M201.344 278.467C195.15 284.66 187.035 287.772 178.886 287.812L178.886 383.016C211.188 382.912 243.37 370.6 267.92 346.051C268.157 345.813 268.394 345.575 268.629 345.336L201.551 278.258C201.482 278.328 201.413 278.397 201.344 278.467Z" fill="#DE13A5"/>
</svg>
